<svg xmlns="http://www.w3.org/2000/svg" viewBox="0 0 12 12"><g fill="#9D8CFF"><rect x="2" y="1" width="1" height="1"/><rect x="3" y="0" width="1" height="2"/><rect x="4" y="0" width="1" height="2"/><rect x="5" y="0" width="1" height="2"/><rect x="6" y="0" width="1" height="2"/><rect x="7" y="0" width="1" height="2"/><rect x="8" y="0" width="1" height="2"/><rect x="9" y="1" width="1" height="1"/><rect x="1" y="2" width="1" height="2"/><rect x="2" y="2" width="1" height="2"/><rect x="3" y="2" width="1" height="2"/><rect x="4" y="2" width="1" height="2"/><rect x="5" y="2" width="1" height="2"/><rect x="6" y="2" width="1" height="2"/><rect x="7" y="2" width="1" height="2"/><rect x="8" y="2" width="1" height="2"/><rect x="9" y="2" width="1" height="2"/><rect x="10" y="2" width="1" height="2"/><rect x="0.5" y="4" width="0.5" height="2"/><rect x="1" y="4" width="1" height="2"/><rect x="2" y="4" width="1" height="2"/><rect x="5" y="4" width="1" height="2"/><rect x="6" y="4" width="1" height="2"/><rect x="9" y="4" width="1" height="2"/><rect x="10" y="4" width="1" height="2"/><rect x="11" y="4" width="0.5" height="2"/><rect x="0.5" y="6" width="0.5" height="2"/><rect x="1" y="6" width="1" height="2"/><rect x="2" y="6" width="1" height="2"/><rect x="3" y="6" width="1" height="2"/><rect x="4" y="6" width="1" height="2"/><rect x="5" y="6" width="1" height="2"/><rect x="6" y="6" width="1" height="2"/><rect x="7" y="6" width="1" height="2"/><rect x="8" y="6" width="1" height="2"/><rect x="9" y="6" width="1" height="2"/><rect x="10" y="6" width="1" height="2"/><rect x="11" y="6" width="0.5" height="2"/><rect x="0.5" y="8" width="0.5" height="2"/><rect x="1" y="8" width="1" height="2"/><rect x="2" y="8" width="1" height="2"/><rect x="3" y="8" width="1" height="2"/><rect x="4" y="8" width="1" height="2"/><rect x="5" y="8" width="1" height="2"/><rect x="6" y="8" width="1" height="2"/><rect x="7" y="8" width="1" height="2"/><rect x="8" y="8" width="1" height="2"/><rect x="9" y="8" width="1" height="2"/><rect x="10" y="8" width="1" height="2"/><rect x="11" y="8" width="0.5" height="2"/><rect x="1" y="10" width="1" height="1"/><rect x="2" y="10" width="1" height="2"/><rect x="3" y="10" width="1" height="1"/><rect x="4" y="10" width="1" height="1"/><rect x="5" y="10" width="1" height="2"/><rect x="6" y="10" width="1" height="2"/><rect x="7" y="10" width="1" height="1"/><rect x="8" y="10" width="1" height="1"/><rect x="9" y="10" width="1" height="2"/><rect x="10" y="10" width="1" height="1"/></g></svg>
